<?xml version="1.0" encoding="UTF-8"?>
<svg width="1200px" height="709px" viewBox="0 0 1200 709" version="1.1" xmlns="http://www.w3.org/2000/svg" xmlns:xlink="http://www.w3.org/1999/xlink">
    <g id="Page-1" stroke="none" stroke-width="1" fill="none" fill-rule="evenodd" opacity="0.3">
        <g id="pencils" fill-rule="nonzero" fill="#24AFBA">
            <g id="Pencil" transform="translate(495.500000, 88.000000) scale(-1, 1) rotate(88.000000) translate(-495.500000, -88.000000) translate(449.000000, 42.000000)">
                <rect id="Rectangle-path" transform="translate(42.061850, 39.610670) rotate(45.000000) translate(-42.061850, -39.610670) " x="36.5619027" y="3.5110162" width="10.9998945" height="72.1993076"></rect>
                <path d="M14.5,90.2 L2.4,78.2 C0.5,76.3 0.5,73.3 2.4,71.5 L9.6,64.3 L28.4,83.1 L21.2,90.3 C19.3,92.1 16.3,92.1 14.5,90.2 Z" id="Shape"></path>
                <rect id="Rectangle-path" transform="translate(52.943450, 50.518150) rotate(45.000000) translate(-52.943450, -50.518150) " x="47.4435027" y="14.4184962" width="10.9998945" height="72.1993076"></rect>
                <polygon id="Shape" points="66.9 7.1 92.4 0.3 85.5 25.8"></polygon>
            </g>
            <g id="Pencil" transform="translate(332.405195, 542.077050) scale(-1, 1) rotate(168.000000) translate(-332.405195, -542.077050) translate(285.905195, 496.077050)">
                <rect id="Rectangle-path" transform="translate(42.061850, 39.610670) rotate(45.000000) translate(-42.061850, -39.610670) " x="36.5619027" y="3.5110162" width="10.9998945" height="72.1993076"></rect>
                <path d="M14.5,90.2 L2.4,78.2 C0.5,76.3 0.5,73.3 2.4,71.5 L9.6,64.3 L28.4,83.1 L21.2,90.3 C19.3,92.1 16.3,92.1 14.5,90.2 Z" id="Shape"></path>
                <rect id="Rectangle-path" transform="translate(52.943450, 50.518150) rotate(45.000000) translate(-52.943450, -50.518150) " x="47.4435027" y="14.4184962" width="10.9998945" height="72.1993076"></rect>
                <polygon id="Shape" points="66.9 7.1 92.4 0.3 85.5 25.8"></polygon>
            </g>
            <g id="Pencil" transform="translate(212.500000, 188.000000) scale(-1, 1) translate(-212.500000, -188.000000) translate(166.000000, 142.000000)">
                <rect id="Rectangle-path" transform="translate(42.061850, 39.610670) rotate(45.000000) translate(-42.061850, -39.610670) " x="36.5619027" y="3.5110162" width="10.9998945" height="72.1993076"></rect>
                <path d="M14.5,90.2 L2.4,78.2 C0.5,76.3 0.5,73.3 2.4,71.5 L9.6,64.3 L28.4,83.1 L21.2,90.3 C19.3,92.1 16.3,92.1 14.5,90.2 Z" id="Shape"></path>
                <rect id="Rectangle-path" transform="translate(52.943450, 50.518150) rotate(45.000000) translate(-52.943450, -50.518150) " x="47.4435027" y="14.4184962" width="10.9998945" height="72.1993076"></rect>
                <polygon id="Shape" points="66.9 7.1 92.4 0.3 85.5 25.8"></polygon>
            </g>
            <g id="Pencil" transform="translate(925.500000, 239.000000) scale(-1, 1) rotate(-18.000000) translate(-925.500000, -239.000000) translate(879.000000, 193.000000)">
                <rect id="Rectangle-path" transform="translate(42.061850, 39.610670) rotate(45.000000) translate(-42.061850, -39.610670) " x="36.5619027" y="3.5110162" width="10.9998945" height="72.1993076"></rect>
                <path d="M14.5,90.2 L2.4,78.2 C0.5,76.3 0.5,73.3 2.4,71.5 L9.6,64.3 L28.4,83.1 L21.2,90.3 C19.3,92.1 16.3,92.1 14.5,90.2 Z" id="Shape"></path>
                <rect id="Rectangle-path" transform="translate(52.943450, 50.518150) rotate(45.000000) translate(-52.943450, -50.518150) " x="47.4435027" y="14.4184962" width="10.9998945" height="72.1993076"></rect>
                <polygon id="Shape" points="66.9 7.1 92.4 0.3 85.5 25.8"></polygon>
            </g>
            <g id="Pencil" transform="translate(623.500000, 341.000000) scale(-1, 1) rotate(-99.000000) translate(-623.500000, -341.000000) translate(577.000000, 295.000000)">
                <rect id="Rectangle-path" transform="translate(42.061850, 39.610670) rotate(45.000000) translate(-42.061850, -39.610670) " x="36.5619027" y="3.5110162" width="10.9998945" height="72.1993076"></rect>
                <path d="M14.5,90.2 L2.4,78.2 C0.5,76.3 0.5,73.3 2.4,71.5 L9.6,64.3 L28.4,83.1 L21.2,90.3 C19.3,92.1 16.3,92.1 14.5,90.2 Z" id="Shape"></path>
                <rect id="Rectangle-path" transform="translate(52.943450, 50.518150) rotate(45.000000) translate(-52.943450, -50.518150) " x="47.4435027" y="14.4184962" width="10.9998945" height="72.1993076"></rect>
                <polygon id="Shape" points="66.9 7.1 92.4 0.3 85.5 25.8"></polygon>
            </g>
            <g id="Pencil" transform="translate(90.500000, 429.000000) scale(-1, 1) rotate(69.000000) translate(-90.500000, -429.000000) translate(44.000000, 383.000000)">
                <rect id="Rectangle-path" transform="translate(42.061850, 39.610670) rotate(45.000000) translate(-42.061850, -39.610670) " x="36.5619027" y="3.5110162" width="10.9998945" height="72.1993076"></rect>
                <path d="M14.5,90.2 L2.4,78.2 C0.5,76.3 0.5,73.3 2.4,71.5 L9.6,64.3 L28.4,83.1 L21.2,90.3 C19.3,92.1 16.3,92.1 14.5,90.2 Z" id="Shape"></path>
                <rect id="Rectangle-path" transform="translate(52.943450, 50.518150) rotate(45.000000) translate(-52.943450, -50.518150) " x="47.4435027" y="14.4184962" width="10.9998945" height="72.1993076"></rect>
                <polygon id="Shape" points="66.9 7.1 92.4 0.3 85.5 25.8"></polygon>
            </g>
            <g id="Pencil" transform="translate(687.500000, 643.000000) scale(-1, 1) translate(-687.500000, -643.000000) translate(641.000000, 597.000000)">
                <rect id="Rectangle-path" transform="translate(42.061850, 39.610670) rotate(45.000000) translate(-42.061850, -39.610670) " x="36.5619027" y="3.5110162" width="10.9998945" height="72.1993076"></rect>
                <path d="M14.5,90.2 L2.4,78.2 C0.5,76.3 0.5,73.3 2.4,71.5 L9.6,64.3 L28.4,83.1 L21.2,90.3 C19.3,92.1 16.3,92.1 14.5,90.2 Z" id="Shape"></path>
                <rect id="Rectangle-path" transform="translate(52.943450, 50.518150) rotate(45.000000) translate(-52.943450, -50.518150) " x="47.4435027" y="14.4184962" width="10.9998945" height="72.1993076"></rect>
                <polygon id="Shape" points="66.9 7.1 92.4 0.3 85.5 25.8"></polygon>
            </g>
            <g id="Pencil" transform="translate(1123.500000, 42.000000) scale(-1, 1) translate(-1123.500000, -42.000000) translate(1077.000000, -4.000000)">
                <rect id="Rectangle-path" transform="translate(42.061850, 39.610670) rotate(45.000000) translate(-42.061850, -39.610670) " x="36.5619027" y="3.5110162" width="10.9998945" height="72.1993076"></rect>
                <path d="M14.5,90.2 L2.4,78.2 C0.5,76.3 0.5,73.3 2.4,71.5 L9.6,64.3 L28.4,83.1 L21.2,90.3 C19.3,92.1 16.3,92.1 14.5,90.2 Z" id="Shape"></path>
                <rect id="Rectangle-path" transform="translate(52.943450, 50.518150) rotate(45.000000) translate(-52.943450, -50.518150) " x="47.4435027" y="14.4184962" width="10.9998945" height="72.1993076"></rect>
                <polygon id="Shape" points="66.9 7.1 92.4 0.3 85.5 25.8"></polygon>
            </g>
            <g id="Pencil" transform="translate(1055.500000, 580.000000) scale(-1, 1) rotate(33.000000) translate(-1055.500000, -580.000000) translate(1009.000000, 534.000000)">
                <rect id="Rectangle-path" transform="translate(42.061850, 39.610670) rotate(45.000000) translate(-42.061850, -39.610670) " x="36.5619027" y="3.5110162" width="10.9998945" height="72.1993076"></rect>
                <path d="M14.5,90.2 L2.4,78.2 C0.5,76.3 0.5,73.3 2.4,71.5 L9.6,64.3 L28.4,83.1 L21.2,90.3 C19.3,92.1 16.3,92.1 14.5,90.2 Z" id="Shape"></path>
                <rect id="Rectangle-path" transform="translate(52.943450, 50.518150) rotate(45.000000) translate(-52.943450, -50.518150) " x="47.4435027" y="14.4184962" width="10.9998945" height="72.1993076"></rect>
                <polygon id="Shape" points="66.9 7.1 92.4 0.3 85.5 25.8"></polygon>
            </g>
        </g>
    </g>
</svg>