<svg xmlns="http://www.w3.org/2000/svg" width="265" height="104" viewBox="0 0 265 104.3">
	<style>.a{fill:#2B93D8;}.b{fill:#24AFBA;}</style>
	<polygon points="29.5 11.4 29.5 53.8 17.8 53.8 17.8 11.4 2.9 11.4 2.9 1.2 44.5 1.2 44.5 11.4 " class="a"/>
	<path d="M95.7 18.7c0 8.4-3.3 13.9-10 16.3l13.3 18.8h-14.4L72.9 37H64.8v16.8H53V1.2h19.9c8.2 0 14 1.4 17.5 4.1C94 8.1 95.7 12.5 95.7 18.7M81.6 24.9c1.5-1.3 2.2-3.4 2.2-6.2s-0.8-4.8-2.3-5.8c-1.5-1.1-4.1-1.6-7.9-1.6H64.8v15.6h8.6C77.4 26.9 80.1 26.2 81.6 24.9" class="a"/>
	<path d="M145.2 53.8l-4.9-11.4H118.3l-4.9 11.4h-12.5l22.7-52.6h11.4l22.7 52.6H145.2zM129.3 16.9l-6.6 15.3h13.2L129.3 16.9z" class="a"/>
	<path d="M188 43.4c5.8 0 10.5-2.3 14.2-6.8l7.5 7.8c-6 6.7-13 10.1-21.1 10.1 -8.1 0-14.8-2.6-20-7.7 -5.2-5.1-7.9-11.6-7.9-19.4 0-7.8 2.7-14.3 8-19.5C174 2.6 180.5 0 188.3 0c8.6 0 15.9 3.3 21.7 9.9l-7.3 8.3c-3.7-4.6-8.3-6.9-13.8-6.9 -4.4 0-8.2 1.4-11.3 4.3 -3.1 2.9-4.7 6.8-4.7 11.7 0 4.9 1.5 8.8 4.4 11.8C180.2 41.9 183.8 43.4 188 43.4" class="a"/>
	<path d="M218.9 1.2h11.7v21.6l19.9-21.6h14.5L244.1 24.5c1.8 2.5 5.1 7.2 10 14 4.9 6.8 8.5 12 10.9 15.3h-13.7l-15.4-20.8 -5.3 5.9v14.9h-11.7V1.2z" class="a"/>
	<path d="M19.3 96.5c4.1 0 7.4-1.6 10-4.8l5.3 5.5c-4.2 4.7-9.2 7.1-14.9 7.1 -5.7 0-10.4-1.8-14.1-5.4C1.8 95.2 0 90.7 0 85.2c0-5.5 1.9-10.1 5.7-13.8 3.8-3.7 8.4-5.5 13.8-5.5 6.1 0 11.2 2.3 15.3 7l-5.1 5.8c-2.6-3.3-5.9-4.9-9.8-4.9 -3.1 0-5.8 1-8 3.1 -2.2 2-3.3 4.8-3.3 8.2 0 3.4 1 6.2 3.1 8.3C13.8 95.5 16.3 96.5 19.3 96.5" class="b"/>
	<polygon points="64.1 66.7 72.4 66.7 72.4 103.8 64.1 103.8 64.1 89.2 49.4 89.2 49.4 103.8 41.1 103.8 41.1 66.7 49.4 66.7 49.4 82.2 64.1 82.2 " class="b"/>
	<path d="M107.9 103.8l-3.4-8h-15.5l-3.4 8h-8.8l16-37.1h8l16 37.1H107.9zM96.8 77.8l-4.7 10.8h9.3L96.8 77.8z" class="b"/>
	<polygon points="147 66.7 155.3 66.7 155.3 103.8 147 103.8 129.3 80.6 129.3 103.8 121.1 103.8 121.1 66.7 128.8 66.7 147 90.6 " class="b"/>
	<path d="M188.5 84.9h8.3v13.2c-3.7 4.1-8.8 6.2-15.3 6.2 -5.4 0-10-1.8-13.7-5.4 -3.7-3.6-5.5-8.2-5.5-13.7 0-5.5 1.9-10.1 5.7-13.8 3.8-3.7 8.3-5.5 13.6-5.5s10 1.8 13.9 5.3l-4.3 6.2c-1.7-1.5-3.2-2.4-4.6-3 -1.4-0.5-2.9-0.8-4.5-0.8 -3.1 0-5.8 1.1-8 3.2 -2.2 2.1-3.2 5-3.2 8.5 0 3.5 1 6.3 3.1 8.4 2.1 2.1 4.5 3.2 7.4 3.2 2.9 0 5.3-0.5 7.2-1.6V84.9z" class="b"/>
	<polygon points="231 66.7 231 74.1 212.5 74.1 212.5 81.8 229.1 81.8 229.1 88.8 212.5 88.8 212.5 96.5 231.6 96.5 231.6 103.8 204.2 103.8 204.2 66.7 " class="b"/>
	<path d="M247.6 74.1c-0.8 0.7-1.2 1.5-1.2 2.6 0 1.1 0.5 1.9 1.5 2.6s3.2 1.4 6.7 2.3c3.5 0.9 6.3 2.2 8.2 3.9 1.9 1.7 2.9 4.3 2.9 7.6 0 3.3-1.2 6-3.7 8.1 -2.5 2.1-5.8 3.1-9.8 3.1 -5.9 0-11.2-2.2-15.9-6.5l4.9-6c4 3.5 7.7 5.3 11.1 5.3 1.5 0 2.7-0.3 3.6-1 0.9-0.7 1.3-1.5 1.3-2.7s-0.5-2-1.4-2.7c-0.9-0.7-2.7-1.3-5.5-2 -4.3-1-7.5-2.4-9.5-4 -2-1.6-3-4.2-3-7.7 0-3.5 1.3-6.2 3.8-8.1 2.5-1.9 5.7-2.9 9.5-2.9 2.5 0 5 0.4 7.4 1.3 2.5 0.8 4.6 2.1 6.5 3.6l-4.2 6c-3.2-2.4-6.5-3.7-10-3.7C249.5 73.2 248.4 73.5 247.6 74.1" class="b"/>
</svg>
