<?xml version="1.0" encoding="utf-8"?>
<!-- Generator: Adobe Illustrator 16.0.0, SVG Export Plug-In . SVG Version: 6.00 Build 0)  -->
<!DOCTYPE svg PUBLIC "-//W3C//DTD SVG 1.1//EN" "http://www.w3.org/Graphics/SVG/1.1/DTD/svg11.dtd">
<svg version="1.1" id="Layer_1" xmlns="http://www.w3.org/2000/svg" xmlns:xlink="http://www.w3.org/1999/xlink" x="0px" y="0px"
	 width="667px" height="266.085px" viewBox="0 0 667 266.085" enable-background="new 0 0 667 266.085" xml:space="preserve">
<g>
	<path d="M459.045,92.603c-0.403,0.331-0.938,0.604-1.567,0.795l-95.396,21.257c-0.668,0.149-1.369,0.197-2.051,0.159
		c-1.236-0.151-1.722-0.283-2.159-0.462l4.22-15.924L207.945,55.374c-2.058-3.774-1.159-4.386-0.009-4.715
		c0.23-0.066,0.47-0.12,0.718-0.163c0.496-0.084,1.021-0.119,1.56-0.095l170.493,7.291l5.984-13.086
		c0.135-0.298,0.356-0.574,0.647-0.817c0.291-0.244,0.651-0.456,1.064-0.629c0.496-0.207,1.068-0.356,1.688-0.434l68.764,46.726
		c0.681,0.487,1.032,1.094,1.01,1.708c-0.008,0.204-0.058,0.409-0.149,0.611C459.576,92.073,459.348,92.354,459.045,92.603z
		 M367.059,107.953l24.928-5.548l55.978-12.46l-54.829-39.055l-4.678,10.233c-0.111,0.243-0.281,0.469-0.496,0.676
		c-0.11,0.106-0.232,0.207-0.365,0.302c-1.344,0.72-2.339,0.947-3.402,0.957l-151.162-6.457l136.314,38.071
		c1.362,0.585,1.475,0.659,1.58,0.737c0.45,0.396,0.525,0.485,0.593,0.575c0.263,0.451,0.296,0.549,0.322,0.646
		c0.057,0.479,0.045,0.58,0.026,0.681c-0.041,0.18-0.071,0.279-0.116,0.379L367.059,107.953"/>
</g>
</svg>
