<?xml version="1.0" encoding="utf-8"?>
<!-- Generator: Adobe Illustrator 16.0.0, SVG Export Plug-In . SVG Version: 6.00 Build 0)  -->
<!DOCTYPE svg PUBLIC "-//W3C//DTD SVG 1.1//EN" "http://www.w3.org/Graphics/SVG/1.1/DTD/svg11.dtd">
<svg version="1.1" id="Layer_1" xmlns="http://www.w3.org/2000/svg" xmlns:xlink="http://www.w3.org/1999/xlink" x="0px" y="0px"
	 width="667px" height="266.085px" viewBox="0 0 667 266.085" enable-background="new 0 0 667 266.085" xml:space="preserve">
<g>
	<path d="M354.689,210.843c-0.821-0.059-1.453-0.184-2.019-0.39l-79.745-37.29c-1.689-1.713-1.724-2.099-1.602-2.48
		c0.344-0.768,0.862-1.229,1.577-1.566c0.481-0.227,1.046-0.397,1.667-0.494l8.278-1.287l14.345-2.229l-13.137-98.729
		c-0.104-0.781,0.398-1.519,1.299-2.041c0.181-0.104,0.377-0.201,0.588-0.287c0.271-0.111,0.57-0.203,0.887-0.277l43.22,45.845
		l37.409,44.574l22.579-3.506c4.871,0.998,5.148,1.256,5.343,1.53c0.204,0.335,0.271,0.508,0.308,0.685
		c0.061,0.293,0.035,0.593-0.079,0.887c-0.046,0.117-0.106,0.233-0.181,0.349l-36.162,55.046c-0.255,0.39-0.666,0.731-1.186,1.003
		c-0.555,0.28-1.169,0.477-1.848,0.582C355.723,210.844,355.201,210.868,354.689,210.843z M353.043,203.966l30.83-46.919
		l-17.645,2.738c-0.178,0.027-0.353,0.046-0.528,0.061c-0.309,0.022-0.482,0.029-0.655,0.029c-0.826-0.046-0.992-0.064-1.155-0.09
		c-0.769-0.164-0.921-0.207-1.068-0.256c-0.673-0.272-0.803-0.337-0.925-0.406l-69.064-79.557l13.622,87.308
		c0.123,0.928-0.612,1.791-1.853,2.308c-0.703,0.252-1.069,0.342-1.461,0.402l-17.689,2.75L353.043,203.966"/>
</g>
</svg>
